<?xml version="1.0" encoding="UTF-8"?>
<!DOCTYPE svg PUBLIC "-//W3C//DTD SVG 1.1//EN" "http://www.w3.org/Graphics/SVG/1.1/DTD/svg11.dtd">
<svg xmlns="http://www.w3.org/2000/svg" version="1.1" width="2000px" height="419px" style="shape-rendering:geometricPrecision; text-rendering:geometricPrecision; image-rendering:optimizeQuality; fill-rule:evenodd; clip-rule:evenodd" xmlns:xlink="http://www.w3.org/1999/xlink">
<g><path style="opacity:0.987" fill="#fefffe" d="M 693.5,-0.5 C 697.167,-0.5 700.833,-0.5 704.5,-0.5C 728.876,2.03519 743.709,15.3685 749,39.5C 750.306,98.4727 750.972,157.473 751,216.5C 754.669,202.494 759.335,188.827 765,175.5C 777.088,149.362 797.588,135.528 826.5,134C 871.828,130.673 902.661,150.173 919,192.5C 928.238,218.162 932.738,244.662 932.5,272C 932.93,302.401 928.097,331.901 918,360.5C 897.271,406.282 862.104,424.116 812.5,414C 788.035,406.868 772.202,391.035 765,366.5C 762.086,356.352 760.253,346.018 759.5,335.5C 756.5,335.5 753.5,335.5 750.5,335.5C 750.667,347.505 750.5,359.505 750,371.5C 745.5,400.667 728.5,415.667 699,416.5C 672.879,417.037 656.545,404.704 650,379.5C 648.346,268.196 648.012,156.863 649,45.5C 651.636,18.0346 666.469,2.70125 693.5,-0.5 Z M 782.5,234.5 C 794.21,234.168 805.876,234.668 817.5,236C 831.223,238.057 839.39,245.89 842,259.5C 845.419,284.413 834.586,297.58 809.5,299C 794.532,300.571 779.865,299.238 765.5,295C 757.129,291.113 751.963,284.613 750,275.5C 746.569,250.311 757.403,236.645 782.5,234.5 Z"/></g>
<g><path style="opacity:0.987" fill="#fefffe" d="M 1091.5,19.5 C 1119.25,18.5251 1146.58,21.3584 1173.5,28C 1230.22,45.8022 1253.72,84.3022 1244,143.5C 1241.24,158.348 1235.24,171.681 1226,183.5C 1211.04,200.128 1194.54,214.961 1176.5,228C 1141.17,251.333 1105.83,274.667 1070.5,298C 1113.83,298.333 1157.17,298.667 1200.5,299C 1236.73,302.224 1255.4,321.891 1256.5,358C 1255.82,393.346 1237.82,412.679 1202.5,416C 1141.81,416.961 1081.15,416.628 1020.5,415C 968.176,408.238 946.676,378.738 956,326.5C 958.692,314.449 964.026,303.782 972,294.5C 982.666,283.159 994.499,273.325 1007.5,265C 1046.67,240.583 1085.67,215.917 1124.5,191C 1132.97,185.529 1138.81,178.029 1142,168.5C 1145.48,151.907 1138.98,142.407 1122.5,140C 1114.17,139.333 1105.83,139.333 1097.5,140C 1080.78,141.944 1064.11,144.277 1047.5,147C 1033.79,147.906 1020.12,147.573 1006.5,146C 976.384,139.892 960.717,121.558 959.5,91C 959.539,69.2454 968.872,52.9121 987.5,42C 1005.28,32.1855 1024.28,26.1855 1044.5,24C 1060.27,21.9159 1075.93,20.4159 1091.5,19.5 Z"/></g>
<g><path style="opacity:0.988" fill="#fefffe" d="M 186.5,418.5 C 179.167,418.5 171.833,418.5 164.5,418.5C 123.051,416.905 83.7176,406.738 46.5,388C 34.4737,380.723 23.6403,371.889 14,361.5C -3.86768,334.581 -3.86768,307.581 14,280.5C 30.4423,262.018 50.9423,254.851 75.5,259C 80.8921,259.681 86.2255,260.681 91.5,262C 111.5,269.333 131.5,276.667 151.5,284C 168.873,289.353 186.54,290.686 204.5,288C 221.415,284.663 226.581,275.163 220,259.5C 215.329,254.498 209.829,250.665 203.5,248C 173.893,239.848 144.226,231.848 114.5,224C 92.6268,218.047 71.9601,209.381 52.5,198C 22.2249,177.592 9.72487,149.092 15,112.5C 19.1653,79.6534 35.9987,55.8201 65.5,41C 98.7252,26.2218 133.559,19.3885 170,20.5C 205.075,19.3734 238.908,25.2067 271.5,38C 315.233,57.5285 327.733,89.3618 309,133.5C 301.171,145.003 290.338,151.836 276.5,154C 267.833,154.667 259.167,154.667 250.5,154C 227.833,148 205.167,142 182.5,136C 166.389,132.63 150.389,132.963 134.5,137C 117.412,144.234 115.079,154.567 127.5,168C 130.417,169.528 133.417,170.861 136.5,172C 170.734,181.713 205.067,191.047 239.5,200C 254.632,205.232 269.299,211.566 283.5,219C 319.466,241.447 334.633,273.947 329,316.5C 323.664,362.65 298.831,392.817 254.5,407C 232.188,413.774 209.522,417.607 186.5,418.5 Z"/></g>
<g><path style="opacity:0.986" fill="#fefffe" d="M 1368.5,22.5 C 1402.38,23.5436 1426.21,39.5436 1440,70.5C 1444.67,81.5017 1448.33,92.8351 1451,104.5C 1465.15,165.111 1478.99,225.777 1492.5,286.5C 1497.17,286.5 1501.83,286.5 1506.5,286.5C 1520.7,221.701 1535.53,157.034 1551,92.5C 1556.57,70.1779 1568.07,51.6779 1585.5,37C 1614.25,19.3829 1643.58,18.3829 1673.5,34C 1689.39,43.5678 1699.56,57.4011 1704,75.5C 1705.84,84.066 1706.84,92.7326 1707,101.5C 1707.67,186.167 1707.67,270.833 1707,355.5C 1704.57,404.147 1679.41,423.647 1631.5,414C 1609.09,405.737 1596.93,389.571 1595,365.5C 1594.67,311.833 1594.33,258.167 1594,204.5C 1593.07,195.87 1588.74,193.537 1581,197.5C 1579.28,200.674 1577.94,204.007 1577,207.5C 1569.67,255.5 1562.33,303.5 1555,351.5C 1552.5,367.527 1547.83,382.86 1541,397.5C 1533.5,408.671 1523,414.837 1509.5,416C 1476.51,420.656 1456.34,406.822 1449,374.5C 1439.24,318.963 1430.24,263.297 1422,207.5C 1421.4,204.363 1420.4,201.363 1419,198.5C 1411.31,193.128 1406.64,195.128 1405,204.5C 1404.67,257.833 1404.33,311.167 1404,364.5C 1398.68,402.472 1376.85,419.638 1338.5,416C 1312.16,411.662 1297.33,396.162 1294,369.5C 1292.36,278.851 1292.03,188.184 1293,97.5C 1296.11,50.2209 1321.28,25.2209 1368.5,22.5 Z"/></g>
<g><path style="opacity:0.987" fill="#fefffe" d="M 1888.5,418.5 C 1882.83,418.5 1877.17,418.5 1871.5,418.5C 1847.04,417.051 1823.71,410.884 1801.5,400C 1763.57,377.691 1742.07,344.524 1737,300.5C 1732.3,264.393 1737.97,230.059 1754,197.5C 1782.12,152.677 1822.96,130.677 1876.5,131.5C 1916.97,130.59 1951.14,144.59 1979,173.5C 1996.63,195.322 2001.3,219.655 1993,246.5C 1988.78,255.058 1982.28,261.224 1973.5,265C 1967.06,267.555 1960.39,269.222 1953.5,270C 1910.5,270.5 1867.5,270.667 1824.5,270.5C 1825.35,286.526 1833.68,296.36 1849.5,300C 1859.74,302.18 1870.07,302.847 1880.5,302C 1897.22,299.321 1913.88,296.321 1930.5,293C 1969.91,286.764 1992.41,303.264 1998,342.5C 2000.25,362.488 1993.75,378.988 1978.5,392C 1961.48,404.338 1942.48,412.005 1921.5,415C 1910.39,416.609 1899.39,417.776 1888.5,418.5 Z M 1867.5,221.5 C 1885.86,219.781 1901.03,225.781 1913,239.5C 1915.55,243.103 1916.38,246.936 1915.5,251C 1885.56,252.477 1855.56,252.977 1825.5,252.5C 1829.21,237.626 1838.54,228.126 1853.5,224C 1858.31,223.197 1862.98,222.363 1867.5,221.5 Z"/></g>
<g><path style="opacity:0.986" fill="#fefffe" d="M 397.5,132.5 C 419.341,129.609 437.508,136.276 452,152.5C 457.085,160.421 459.751,169.088 460,178.5C 460.333,221.167 460.667,263.833 461,306.5C 464.819,328.975 477.986,338.142 500.5,334C 504.274,332.698 507.441,330.531 510,327.5C 512.994,322.184 514.994,316.518 516,310.5C 517.297,265.195 517.964,219.862 518,174.5C 521.321,154.696 532.488,141.53 551.5,135C 570.495,129.62 588.162,132.286 604.5,143C 613.839,151.844 619.339,162.677 621,175.5C 621.667,239.833 621.667,304.167 621,368.5C 617.813,404.351 598.313,420.184 562.5,416C 536.127,411.626 521.294,396.126 518,369.5C 517.5,363.175 517.334,356.842 517.5,350.5C 514.5,350.5 511.5,350.5 508.5,350.5C 508.561,385.566 491.561,407.066 457.5,415C 408.365,421.516 375.865,401.349 360,354.5C 356.712,343.394 354.712,332.061 354,320.5C 353.774,277.328 353.274,234.161 352.5,191C 350.288,157.762 365.288,138.262 397.5,132.5 Z"/></g>
</svg>
